<svg width="72" height="72" viewBox="0 0 72 72" fill="none" xmlns="http://www.w3.org/2000/svg">
<path fill-rule="evenodd" clip-rule="evenodd" d="M5.5 36C5.5 19.0023 19.0023 5.5 36 5.5C52.9977 5.5 66.5 19.0023 66.5 36C66.5 52.9977 52.9977 66.5 36 66.5C19.0023 66.5 5.5 52.9977 5.5 36ZM8 36C8 51.4023 20.5977 64 36 64C51.4023 64 64 51.4023 64 36C64 20.5977 51.4023 8 36 8C20.5977 8 8 20.5977 8 36Z" fill="url(#paint0_linear_262_1584)"/>
<g clip-path="url(#clip0_262_1584)">
<path d="M46.0286 49L36 38.9714L25.9714 49L23 46.0286L33.0286 36L23 25.9714L25.9714 23L36 33.0286L46.0286 23L49 25.9714L38.9714 36L49 46.0286L46.0286 49Z" fill="url(#paint1_linear_262_1584)"/>
</g>
<defs>
<linearGradient id="paint0_linear_262_1584" x1="5.5" y1="43.3996" x2="63.8551" y2="43.9393" gradientUnits="userSpaceOnUse">
<stop stop-color="#B59250"/>
<stop offset="0.484525" stop-color="#D3AF5B"/>
<stop offset="1" stop-color="#B98B3F"/>
</linearGradient>
<linearGradient id="paint1_linear_262_1584" x1="23" y1="39.1539" x2="47.8727" y2="39.384" gradientUnits="userSpaceOnUse">
<stop stop-color="#B59250"/>
<stop offset="0.484525" stop-color="#D3AF5B"/>
<stop offset="1" stop-color="#B98B3F"/>
</linearGradient>
<clipPath id="clip0_262_1584">
<rect x="23" y="23" width="26" height="26" rx="8" fill="white"/>
</clipPath>
</defs>
</svg>
