<svg width="72" height="72" viewBox="0 0 72 72" fill="none" xmlns="http://www.w3.org/2000/svg">
<g clip-path="url(#clip0_262_1571)">
<path d="M24.0834 33.8321C23.7961 33.8321 23.5205 33.7179 23.3173 33.5147C23.1141 33.3116 23 33.036 23 32.7486V24.0834C23 23.7961 23.1141 23.5205 23.3173 23.3173C23.5205 23.1141 23.7961 23 24.0834 23H32.7508C33.0382 23 33.3137 23.1141 33.5169 23.3173C33.7201 23.5205 33.8342 23.7961 33.8342 24.0834V32.7486C33.8342 33.036 33.7201 33.3116 33.5169 33.5147C33.3137 33.7179 33.0382 33.8321 32.7508 33.8321H24.0834ZM39.2514 33.8321C38.964 33.8321 38.6884 33.7179 38.4853 33.5147C38.2821 33.3116 38.1679 33.036 38.1679 32.7486V24.0834C38.1679 23.7961 38.2821 23.5205 38.4853 23.3173C38.6884 23.1141 38.964 23 39.2514 23H47.9166C48.2039 23 48.4795 23.1141 48.6827 23.3173C48.8859 23.5205 49 23.7961 49 24.0834V32.7486C49 33.036 48.8859 33.3116 48.6827 33.5147C48.4795 33.7179 48.2039 33.8321 47.9166 33.8321H39.2514ZM24.0834 49C23.7961 49 23.5205 48.8859 23.3173 48.6827C23.1141 48.4795 23 48.2039 23 47.9166V39.2492C23 38.9618 23.1141 38.6863 23.3173 38.4831C23.5205 38.2799 23.7961 38.1658 24.0834 38.1658H32.7508C33.0382 38.1658 33.3137 38.2799 33.5169 38.4831C33.7201 38.6863 33.8342 38.9618 33.8342 39.2492V47.9166C33.8342 48.2039 33.7201 48.4795 33.5169 48.6827C33.3137 48.8859 33.0382 49 32.7508 49H24.0834ZM39.2514 49C38.964 49 38.6884 48.8859 38.4853 48.6827C38.2821 48.4795 38.1679 48.2039 38.1679 47.9166V39.2492C38.1679 38.9618 38.2821 38.6863 38.4853 38.4831C38.6884 38.2799 38.964 38.1658 39.2514 38.1658H47.9166C48.2039 38.1658 48.4795 38.2799 48.6827 38.4831C48.8859 38.6863 49 38.9618 49 39.2492V47.9166C49 48.2039 48.8859 48.4795 48.6827 48.6827C48.4795 48.8859 48.2039 49 47.9166 49H39.2514Z" fill="url(#paint0_linear_262_1571)"/>
</g>
<path fill-rule="evenodd" clip-rule="evenodd" d="M36 65C52.0163 65 65 52.0163 65 36C65 19.9837 52.0163 7 36 7C19.9837 7 7 19.9837 7 36C7 52.0163 19.9837 65 36 65ZM67 36C67 53.1208 53.1208 67 36 67C18.8792 67 5 53.1208 5 36C5 18.8792 18.8792 5 36 5C53.1208 5 67 18.8792 67 36Z" fill="url(#paint1_linear_262_1571)"/>
<defs>
<linearGradient id="paint0_linear_262_1571" x1="23" y1="39.1539" x2="47.8727" y2="39.384" gradientUnits="userSpaceOnUse">
<stop stop-color="#B59250"/>
<stop offset="0.484525" stop-color="#D3AF5B"/>
<stop offset="1" stop-color="#B98B3F"/>
</linearGradient>
<linearGradient id="paint1_linear_262_1571" x1="4" y1="43.7636" x2="65.225" y2="44.3298" gradientUnits="userSpaceOnUse">
<stop stop-color="#B59250"/>
<stop offset="0.484525" stop-color="#D3AF5B"/>
<stop offset="1" stop-color="#B98B3F"/>
</linearGradient>
<clipPath id="clip0_262_1571">
<rect x="27" y="27" width="18" height="18" rx="1" fill="white"/>
</clipPath>
</defs>
</svg>
