<?xml version="1.0" encoding="UTF-8" standalone="no"?>
<!DOCTYPE svg PUBLIC "-//W3C//DTD SVG 1.1//EN" "http://www.w3.org/Graphics/SVG/1.1/DTD/svg11.dtd">
<svg width="100%" height="100%" viewBox="0 0 366 317" version="1.1" xmlns="http://www.w3.org/2000/svg" xmlns:xlink="http://www.w3.org/1999/xlink" xml:space="preserve" xmlns:serif="http://www.serif.com/" style="fill-rule:evenodd;clip-rule:evenodd;stroke-linejoin:round;stroke-miterlimit:2;">
    <g transform="matrix(1,0,0,1,-10395.2,-9875.78)">
        <g transform="matrix(0.358901,0,0,1.74196,12418.8,6566.03)">
            <g id="Symbol" transform="matrix(2.1531,0,0,0.443609,-12315.8,575.428)">
                <g id="Logo---Icon" serif:id="Logo - Icon">
                    <g id="Symbol1" serif:id="Symbol">
                        <g transform="matrix(0.676195,0,0,0.676195,-3722.46,-3905.62)">
                            <path d="M10623.7,10297.8C10623.8,10297.9 10623.8,10297.9 10623.8,10298C10623.8,10298 10623.8,10298 10623.8,10298C10623.8,10298.4 10623.7,10298.8 10623.5,10299.2C10623.1,10300.1 10622.2,10300.7 10621.2,10300.8C10621.1,10300.9 10621,10300.9 10621,10300.9L10622.4,10300.5L10600.8,10313.6C10599.6,10314.3 10598.2,10314.1 10597.3,10313.1C10547.4,10257.3 10474.9,10222.2 10394.3,10222.2C10244,10222.2 10122,10344.1 10122,10494.4C10122,10644.7 10244,10766.6 10394.3,10766.6C10465.1,10766.6 10529.6,10739.5 10578.1,10695.1C10578.6,10694.7 10579.3,10694.4 10580,10694.4C10580,10694.4 10603.5,10694.4 10603.5,10694.4C10607.7,10694.3 10611.7,10694 10615.7,10693.7C10616.8,10693.6 10617.9,10694.2 10618.4,10695.3C10618.9,10696.3 10618.7,10697.5 10618,10698.3C10562.6,10759 10482.8,10797.2 10394.3,10797.2C10227.2,10797.2 10091.5,10661.5 10091.5,10494.4C10091.5,10327.3 10227.2,10191.6 10394.3,10191.6C10485.6,10191.6 10567.6,10232.2 10623.1,10296.2C10623.5,10296.7 10623.7,10297.2 10623.7,10297.8Z" style="fill:url(#_Linear1);"/>
                        </g>
                        <g id="Building" transform="matrix(0.94654,0,0,0.94654,624.403,-3587.01)">
                            <path d="M3020.83,7277.61C3019.86,7277.61 3019.04,7276.9 3018.89,7275.96C3018.87,7275.86 3018.87,7275.75 3018.87,7275.65L3018.87,7041.6C3018.87,7040.89 3019.25,7040.24 3019.87,7039.89C3020.49,7039.54 3021.25,7039.55 3021.85,7039.92L3115.82,7096.89C3116.41,7097.25 3116.76,7097.89 3116.76,7098.57L3116.76,7256.53C3116.76,7257.61 3115.89,7258.49 3114.8,7258.49C3084.35,7258.59 3043.24,7270.24 3021.46,7277.51L3020.83,7277.61ZM3008.02,7280.17C2999.42,7282.09 2990.09,7283.09 2980.41,7283.46C2980.39,7283.46 2980.36,7283.46 2980.34,7283.46L2961.87,7283.46C2961.85,7283.46 2961.83,7283.46 2961.81,7283.46C2944.76,7282.9 2927.42,7280.97 2911.8,7279.11C2910.81,7278.99 2910.07,7278.15 2910.07,7277.15L2910.07,7097.25C2910.07,7096.56 2910.43,7095.92 2911.02,7095.56L3006.57,7037.73C3007.18,7037.36 3007.94,7037.35 3008.56,7037.7C3009.18,7038.05 3009.56,7038.7 3009.56,7039.41L3009.56,7278.25C3009.56,7279.17 3008.92,7279.97 3008.02,7280.17ZM2899.51,7277.97C2885.33,7276.27 2873.13,7274.88 2864.71,7275.12C2839.76,7275.81 2819.72,7279.28 2806.47,7282.36C2805.89,7282.49 2805.28,7282.35 2804.8,7281.98C2804.34,7281.61 2804.06,7281.04 2804.06,7280.44L2804.06,7159.68C2804.06,7158.99 2804.42,7158.36 2805,7158L2898.71,7100.69C2899.32,7100.32 2900.08,7100.31 2900.7,7100.66C2901.32,7101 2901.71,7101.66 2901.71,7102.37L2901.71,7276.01C2901.71,7276.58 2901.47,7277.11 2901.05,7277.49C2900.62,7277.86 2900.06,7278.03 2899.51,7277.97Z" style="fill:url(#_Linear2);"/>
                        </g>
                    </g>
                </g>
            </g>
        </g>
    </g>
    <defs>
        <linearGradient id="_Linear1" x1="0" y1="0" x2="1" y2="0" gradientUnits="userSpaceOnUse" gradientTransform="matrix(309.717,605.51,-605.51,309.717,10314,10191.6)"><stop offset="0" style="stop-color:rgb(244,201,91);stop-opacity:1"/><stop offset="0.21" style="stop-color:rgb(243,208,114);stop-opacity:1"/><stop offset="0.4" style="stop-color:rgb(243,211,122);stop-opacity:1"/><stop offset="1" style="stop-color:rgb(237,191,89);stop-opacity:1"/></linearGradient>
        <linearGradient id="_Linear2" x1="0" y1="0" x2="1" y2="0" gradientUnits="userSpaceOnUse" gradientTransform="matrix(149.96,231.639,-231.639,149.96,2931.68,7051.82)"><stop offset="0" style="stop-color:rgb(243,211,122);stop-opacity:1"/><stop offset="0.44" style="stop-color:rgb(233,196,106);stop-opacity:1"/><stop offset="1" style="stop-color:rgb(210,161,70);stop-opacity:1"/></linearGradient>
    </defs>
</svg>
