<svg clip-rule="evenodd" fill-rule="evenodd" stroke-linejoin="round" stroke-miterlimit="2" viewBox="0 0 1194 268" xmlns="http://www.w3.org/2000/svg" xmlns:xlink="http://www.w3.org/1999/xlink"><linearGradient id="a" gradientTransform="matrix(309.717 605.51 -605.51 309.717 10314 10191.6)" gradientUnits="userSpaceOnUse" x1="0" x2="1" y1="0" y2="0"><stop offset="0" stop-color="#f4c95b"/><stop offset=".21" stop-color="#f3d072"/><stop offset=".4" stop-color="#f3d37a"/><stop offset="1" stop-color="#edbf59"/></linearGradient><linearGradient id="b" gradientTransform="matrix(149.96 231.639 -231.639 149.96 2931.68 7051.82)" gradientUnits="userSpaceOnUse" x1="0" x2="1" y1="0" y2="0"><stop offset="0" stop-color="#f3d37a"/><stop offset=".44" stop-color="#e9c46a"/><stop offset="1" stop-color="#d2a146"/></linearGradient><path d="m10623.7 10297.8c.1.1.1.1.1.2 0 .4-.1.8-.3 1.2-.4.9-1.3 1.5-2.3 1.6-.1.1-.2.1-.2.1l1.4-.4-21.6 13.1c-1.2.7-2.6.5-3.5-.5-49.9-55.8-122.4-90.9-203-90.9-150.3 0-272.3 121.9-272.3 272.2s122 272.2 272.3 272.2c70.8 0 135.3-27.1 183.8-71.5.5-.4 1.2-.7 1.9-.7h23.5c4.2-.1 8.2-.4 12.2-.7 1.1-.1 2.2.5 2.7 1.6.5 1 .3 2.2-.4 3-55.4 60.7-135.2 98.9-223.7 98.9-167.1 0-302.8-135.7-302.8-302.8s135.7-302.8 302.8-302.8c91.3 0 173.3 40.6 228.8 104.6.4.5.6 1 .6 1.6z" fill="url(#a)" transform="matrix(.44171585931 0 0 .44171782534 -4457.58704322277 -4501.83951061056)"/><path d="m3020.83 7277.61c-.97 0-1.79-.71-1.94-1.65-.02-.1-.02-.21-.02-.31v-234.05c0-.71.38-1.36 1-1.71s1.38-.34 1.98.03l93.97 56.97c.59.36.94 1 .94 1.68v157.96c0 1.08-.87 1.96-1.96 1.96-30.45.1-71.56 11.75-93.34 19.02zm-12.81 2.56c-8.6 1.92-17.93 2.92-27.61 3.29-.02 0-.05 0-.07 0h-18.47c-.02 0-.04 0-.06 0-17.05-.56-34.39-2.49-50.01-4.35-.99-.12-1.73-.96-1.73-1.96v-179.9c0-.69.36-1.33.95-1.69l95.55-57.83c.61-.37 1.37-.38 1.99-.03s1 1 1 1.71v238.84c0 .92-.64 1.72-1.54 1.92zm-108.51-2.2c-14.18-1.7-26.38-3.09-34.8-2.85-24.95.69-44.99 4.16-58.24 7.24-.58.13-1.19-.01-1.67-.38-.46-.37-.74-.94-.74-1.54v-120.76c0-.69.36-1.32.94-1.68l93.71-57.31c.61-.37 1.37-.38 1.99-.03.62.34 1.01 1 1.01 1.71v173.64c0 .57-.24 1.1-.66 1.48-.43.37-.99.54-1.54.48z" fill="url(#b)" transform="matrix(.61831532247 0 0 .61831807452 -1618.0535870919 -4293.71061830553)"/><g fill="#f0c562"><path d="m1691.75 6287.69h6.192v300h-6.192z" transform="matrix(.6869453627 0 0 .75855356845 -798.01396907483 -4749.59988943789)"/><g fill-rule="nonzero" transform="matrix(.09896425685 0 0 .10121887056 342.70700031082 172.84821647341)"><path d="m834.03 679.454v-475.337h157.54c34.86 0 66.89 6.111 96.09 18.334s54.21 28.86 75.03 49.911c20.83 21.05 37.12 46.175 48.89 75.375 11.77 29.199 17.66 60.548 17.66 94.048s-5.77 64.85-17.32 94.049c-11.54 29.2-27.73 54.325-48.55 75.375-20.82 21.051-45.95 37.688-75.37 49.911-29.43 12.223-61.57 18.334-96.43 18.334zm160.936-428.483h-108.649v381.628h108.649c25.354 0 49.114-4.866 71.304-14.599 22.18-9.733 41.42-23.088 57.72-40.064 16.29-16.977 29.08-37.122 38.36-60.436s13.92-48.552 13.92-75.715c0-27.162-4.64-52.4-13.92-75.714s-22.07-43.459-38.36-60.436c-16.3-16.976-35.54-30.331-57.72-40.064-22.19-9.733-45.95-14.6-71.304-14.6z"/><path d="m1337.89 679.454v-475.337h324.59v45.496h-272.31v167.047h188.78v45.497h-188.78v171.8h275.02v45.497z"/><path d="m1907.61 679.454-186.06-475.337h55.69l162.97 425.087 163.65-425.087h53.65l-187.42 475.337z"/><path d="m2233.56 679.454v-475.337h324.59v45.496h-272.3v167.047h188.77v45.497h-188.77v171.8h275.01v45.497z"/><path d="m2663.4 679.454v-475.337h52.29v429.161h268.22v46.176z"/><path d="m3497.96 441.785c0 33.953-6.12 65.982-18.34 96.086-12.22 30.105-28.97 56.135-50.25 78.092-21.28 21.956-46.29 39.271-75.03 51.947-28.75 12.676-59.65 19.014-92.7 19.014-32.59 0-63.37-6.338-92.35-19.014-28.97-12.676-54.09-29.991-75.37-51.947-21.28-21.957-38.03-47.987-50.25-78.092-12.22-30.104-18.33-62.133-18.33-96.086 0-33.952 6.11-65.981 18.33-96.086 12.22-30.104 28.97-56.135 50.25-78.091s46.4-39.272 75.37-51.947c28.98-12.676 59.76-19.014 92.35-19.014 33.05 0 63.95 6.338 92.7 19.014 28.74 12.675 53.75 29.991 75.03 51.947s38.03 47.987 50.25 78.091c12.22 30.105 18.34 62.134 18.34 96.086zm-52.97 0c0-27.614-4.75-53.532-14.26-77.751-9.51-24.22-22.41-45.157-38.71-62.813-16.29-17.655-35.65-31.576-58.06-41.761-22.4-10.186-46.51-15.279-72.32-15.279-25.8 0-49.9 5.093-72.31 15.279-22.41 10.185-41.77 24.106-58.06 41.761-16.3 17.656-29.2 38.593-38.71 62.813-9.51 24.219-14.26 50.137-14.26 77.751 0 27.615 4.75 53.532 14.26 77.752s22.41 45.157 38.71 62.812c16.29 17.656 35.65 31.576 58.06 41.762s46.51 15.279 72.31 15.279c25.81 0 49.92-5.093 72.32-15.279 22.41-10.186 41.77-24.106 58.06-41.762 16.3-17.655 29.2-38.592 38.71-62.812s14.26-50.137 14.26-77.752z"/><path d="m3606.6 679.454v-475.337h196.25c45.72 0 82.39 12.902 110.01 38.706 27.61 25.804 41.42 59.757 41.42 101.858s-13.81 76.054-41.42 101.858c-27.62 25.804-64.29 38.706-110.01 38.706h-143.96v194.209zm190.14-429.162h-137.85v190.135h137.85c32.59 0 58.28-8.601 77.07-25.804 18.79-17.202 28.18-40.517 28.18-69.942 0-28.973-9.39-51.948-28.18-68.924s-44.48-25.465-77.07-25.465z"/><path d="m4291.77 645.501-182.67-380.948v414.901h-48.89v-475.337h72.66l158.9 338.168 158.9-338.168h72.66v475.337h-49.57v-413.543z"/><path d="m4654.38 679.454v-475.337h324.59v45.496h-272.3v167.047h188.78v45.497h-188.78v171.8h275.02v45.497z"/><path d="m5084.22 204.117h54.33l278.41 393.851-1.36-393.851h49.57v475.337h-47.53l-285.2-402.679 1.36 402.679h-49.58z"/><path d="m5554.13 250.292v-46.175h380.27v46.175h-163.65v429.162h-52.29v-429.162z"/><path d="m6636.54 451.971c0 32.595-5.77 63.265-17.32 92.012-11.54 28.746-27.38 53.645-47.53 74.696-20.15 21.05-44.03 37.687-71.64 49.91s-57.49 18.335-89.64 18.335c-33.5 0-64.96-6.451-94.38-19.353-29.43-12.902-55.01-30.331-76.74-52.288-21.73-21.956-38.82-47.873-51.27-77.751s-18.67-61.794-18.67-95.747c0-33.952 6.22-65.868 18.67-95.746s29.43-55.796 50.93-77.752c21.51-21.956 46.97-39.385 76.4-52.287 29.42-12.902 60.89-19.353 94.39-19.353 35.76 0 69.94 6.564 102.53 19.693 32.6 13.128 60.21 32.594 82.85 58.398l-35.31 35.311c-17.66-20.824-39.95-37.008-66.89-48.552s-54.66-17.316-83.18-17.316c-26.71 0-51.5 5.093-74.36 15.279-22.86 10.185-42.67 24.106-59.42 41.761-16.75 17.656-29.88 38.593-39.38 62.813-9.51 24.219-14.26 50.137-14.26 77.751 0 27.615 4.86 53.532 14.6 77.752 9.73 24.22 22.86 45.27 39.38 63.152s36.33 31.915 59.42 42.101 47.76 15.279 74.02 15.279c23.54 0 45.49-4.188 65.86-12.563 20.38-8.375 38.14-19.805 53.31-34.292 15.16-14.486 27.61-31.689 37.35-51.608 9.73-19.919 15.5-41.422 17.31-64.51h-160.25v-46.175h213.22z"/><path d="m6743.83 679.454v-475.337h194.89c45.27 0 81.82 12.675 109.67 38.027 27.84 25.351 41.76 58.398 41.76 99.142 0 31.236-8.94 58.285-26.83 81.146-17.88 22.862-41.98 38.593-72.31 47.195l101.17 209.827h-57.72l-96.42-203.037h-141.92v203.037zm190.81-429.162h-138.52v182.666h138.52c31.24 0 56.25-8.375 75.04-25.125s28.18-38.706 28.18-65.868c0-27.615-9.39-49.798-28.18-66.548s-43.8-25.125-75.04-25.125z"/><path d="m7643.57 441.785c0 33.953-6.11 65.982-18.33 96.086-12.22 30.105-28.97 56.135-50.25 78.092-21.28 21.956-46.29 39.271-75.04 51.947-28.74 12.676-59.64 19.014-92.69 19.014-32.59 0-63.37-6.338-92.35-19.014-28.97-12.676-54.09-29.991-75.37-51.947-21.28-21.957-38.03-47.987-50.25-78.092-12.22-30.104-18.34-62.133-18.34-96.086 0-33.952 6.12-65.981 18.34-96.086 12.22-30.104 28.97-56.135 50.25-78.091s46.4-39.272 75.37-51.947c28.98-12.676 59.76-19.014 92.35-19.014 33.05 0 63.95 6.338 92.69 19.014 28.75 12.675 53.76 29.991 75.04 51.947s38.03 47.987 50.25 78.091c12.22 30.105 18.33 62.134 18.33 96.086zm-52.96 0c0-27.614-4.75-53.532-14.26-77.751-9.51-24.22-22.41-45.157-38.71-62.813-16.29-17.655-35.65-31.576-58.06-41.761-22.4-10.186-46.51-15.279-72.32-15.279-25.8 0-49.91 5.093-72.32 15.279-22.4 10.185-41.76 24.106-58.05 41.761-16.3 17.656-29.2 38.593-38.71 62.813-9.51 24.219-14.26 50.137-14.26 77.751 0 27.615 4.75 53.532 14.26 77.752s22.41 45.157 38.71 62.812c16.29 17.656 35.65 31.576 58.05 41.762 22.41 10.186 46.52 15.279 72.32 15.279 25.81 0 49.92-5.093 72.32-15.279 22.41-10.186 41.77-24.106 58.06-41.762 16.3-17.655 29.2-38.592 38.71-62.812s14.26-50.137 14.26-77.752z"/><path d="m8124.34 478.454c0 63.379-17.31 113.968-51.94 151.769-34.63 37.8-80.92 56.701-138.87 56.701-58.4 0-104.8-18.788-139.21-56.362-34.4-37.574-51.6-88.277-51.6-152.108v-274.337h52.28v274.337c0 48.439 12.57 87.372 37.69 116.797 25.13 29.426 58.74 44.139 100.84 44.139s75.71-14.713 100.84-44.139c25.12-29.425 37.69-68.358 37.69-116.797v-274.337h52.28z"/><path d="m8245.22 679.454v-475.337h196.24c45.72 0 82.39 12.902 110.01 38.706 27.61 25.804 41.42 59.757 41.42 101.858s-13.81 76.054-41.42 101.858c-27.62 25.804-64.29 38.706-110.01 38.706h-143.96v194.209zm190.13-429.162h-137.85v190.135h137.85c32.59 0 58.29-8.601 77.07-25.804 18.79-17.202 28.18-40.517 28.18-69.942 0-28.973-9.39-51.948-28.18-68.924-18.78-16.976-44.48-25.465-77.07-25.465z"/></g><g fill-rule="nonzero" transform="matrix(.30792652258 0 0 .31494173577 178.59739721984 -49.41979454665)"><path d="m1028.38 642.078c26.99 0 52.74-5.295 77.24-15.885s45.06-25.229 61.67-43.917l31.15 32.393c-21.6 22.425-47.35 39.971-77.25 52.638-29.9 12.666-61.25 18.999-94.06 18.999-31.563 0-61.152-5.814-88.769-17.442s-51.6-27.513-71.949-47.655c-20.349-20.141-36.338-44.02-47.966-71.637s-17.442-56.999-17.442-88.146 5.814-60.529 17.442-88.145c11.628-27.617 27.617-51.496 47.966-71.638s44.332-36.027 71.949-47.655 57.206-17.442 88.769-17.442c33.64 0 65.51 6.333 95.62 19 30.11 12.666 55.75 30.212 76.93 52.638l-31.77 33.638c-17.02-19.103-38.1-34.054-63.23-44.851-25.12-10.798-50.97-16.196-77.55-16.196-24.92 0-48.278 4.672-70.081 14.016s-40.594 22.01-56.376 37.999c-15.781 15.988-28.239 35.092-37.376 57.31-9.136 22.218-13.704 45.993-13.704 71.326s4.568 49.108 13.704 71.326c9.137 22.218 21.699 41.322 37.688 57.311 15.989 15.988 34.884 28.655 56.687 37.999s45.368 14.016 70.708 14.016z"/><path d="m1861.87 461.426c0 31.147-5.82 60.529-17.45 88.146s-27.51 51.496-47.65 71.637c-20.14 20.142-43.92 36.027-71.33 47.655s-56.69 17.442-87.83 17.442c-31.15 0-60.53-5.814-88.15-17.442-27.61-11.628-51.49-27.513-71.64-47.655-20.14-20.141-36.02-44.02-47.65-71.637s-17.44-56.999-17.44-88.146 5.81-60.529 17.44-88.145c11.63-27.617 27.51-51.496 47.65-71.638 20.15-20.142 44.03-36.027 71.64-47.655 27.62-11.628 57-17.442 88.15-17.442 31.14 0 60.42 5.814 87.83 17.442s51.19 27.513 71.33 47.655 36.02 44.021 47.65 71.638c11.63 27.616 17.45 56.998 17.45 88.145zm-48.59 0c0-25.333-4.57-49.108-13.71-71.326s-21.49-41.322-37.06-57.31c-15.58-15.989-34.16-28.655-55.76-37.999-21.59-9.344-44.64-14.016-69.14-14.016-24.92 0-48.18 4.672-69.77 14.016-21.6 9.344-40.18 22.01-55.75 37.999-15.58 15.988-27.93 35.092-37.07 57.31s-13.7 45.993-13.7 71.326 4.56 49.005 13.7 71.015 21.49 41.114 37.07 57.31c15.57 16.196 34.15 28.967 55.75 38.311 21.59 9.344 44.85 14.016 69.77 14.016 24.5 0 47.55-4.672 69.14-14.016 21.6-9.344 40.18-22.115 55.76-38.311 15.57-16.196 27.92-35.3 37.06-57.31s13.71-45.682 13.71-71.015z"/><path d="m2087.99 679.454v-436.056h186.88c42.36 0 76.62 11.525 102.79 34.573 26.16 23.049 39.24 53.261 39.24 90.638 0 28.655-8.41 53.364-25.23 74.129s-39.35 35.092-67.59 42.983l97.81 193.733h-52.96l-93.44-187.504h-139.53v187.504zm183.77-393.073h-135.8v165.078h135.8c29.07 0 52.53-7.579 70.39-22.737s26.78-35.196 26.78-60.113c0-24.918-8.92-44.852-26.78-59.802-17.86-14.951-41.32-22.426-70.39-22.426z"/><path d="m2667.95 243.398h47.966v436.056h-47.966z"/><path d="m2945.15 604.702 31.77-33.016c22.43 23.672 46.41 41.633 71.95 53.884s52.43 18.377 80.67 18.377c34.06 0 62.09-8.099 84.1-24.295s33.01-36.753 33.01-61.671c0-22.425-7.78-39.66-23.36-51.703-15.57-12.044-41.21-20.973-76.93-26.787l-62.92-9.967c-41.94-6.644-72.88-18.999-92.81-37.064-19.94-18.066-29.91-42.464-29.91-73.195 0-36.131 14.13-65.409 42.37-87.835 28.24-22.425 65.2-33.638 110.88-33.638 30.31 0 60.42 4.983 90.32 14.95s57.11 24.295 81.61 42.983l-27.41 37.376c-23.67-17.857-47.76-31.354-72.26-40.491-24.5-9.136-49.21-13.704-74.13-13.704-31.15 0-56.38 7.163-75.69 21.491s-28.96 32.704-28.96 55.13c0 20.349 6.85 35.923 20.55 46.72 13.71 10.798 36.34 18.688 67.9 23.672l62.3 9.967c47.34 7.89 81.91 21.387 103.71 40.491 21.81 19.103 32.71 45.474 32.71 79.113 0 19.103-4.05 36.649-12.15 52.638-8.1 15.988-19.52 29.693-34.26 41.114-14.74 11.42-32.39 20.349-52.95 26.786s-43.09 9.655-67.59 9.655c-34.47 0-67.59-6.956-99.36-20.868s-59.49-33.95-83.16-60.113z"/></g></g></svg>